<?xml version="1.0" encoding="UTF-8" standalone="no"?>
<!-- Created with Inkscape (http://www.inkscape.org/) -->

<svg
   width="300mm"
   height="75mm"
   viewBox="0 0 300 75.000001"
   version="1.1"
   id="svg1"
   xml:space="preserve"
   xmlns:xlink="http://www.w3.org/1999/xlink"
   xmlns="http://www.w3.org/2000/svg"
   xmlns:svg="http://www.w3.org/2000/svg"><defs
     id="defs1"><linearGradient
       id="swatch16"><stop
         style="stop-color:#000000;stop-opacity:1;"
         offset="0"
         id="stop16" /></linearGradient><linearGradient
       id="swatch14"><stop
         style="stop-color:#ffffff;stop-opacity:0;"
         offset="0"
         id="stop14" /></linearGradient><linearGradient
       id="swatch13"><stop
         style="stop-color:#1a2150;stop-opacity:1;"
         offset="0"
         id="stop13" /></linearGradient><linearGradient
       id="swatch12"><stop
         style="stop-color:#d7af3b;stop-opacity:1;"
         offset="0"
         id="stop12" /></linearGradient><linearGradient
       id="swatch11"><stop
         style="stop-color:#ffffff;stop-opacity:1;"
         offset="0"
         id="stop11" /></linearGradient><linearGradient
       id="swatch10"><stop
         style="stop-color:#000000;stop-opacity:1;"
         offset="0"
         id="stop10" /></linearGradient><linearGradient
       id="swatch9"
       gradientTransform="matrix(0.01069218,0,0,0.0091329,62.031469,36.906378)"><stop
         style="stop-color:#d7af3b;stop-opacity:1;"
         offset="0"
         id="stop9" /></linearGradient><linearGradient
       id="swatch8"
       gradientTransform="scale(0.07000434)"><stop
         style="stop-color:#1a2150;stop-opacity:1;"
         offset="0"
         id="stop8" /></linearGradient><linearGradient
       xlink:href="#swatch9"
       id="linearGradient5"
       gradientTransform="scale(0)"
       x1="113.76608"
       y1="84.892693"
       x2="113.76608"
       y2="84.892693"
       gradientUnits="userSpaceOnUse" /><linearGradient
       xlink:href="#swatch16"
       id="linearGradient16"
       x1="93.027222"
       y1="62.418964"
       x2="299.6933"
       y2="62.418964"
       gradientUnits="userSpaceOnUse" /><linearGradient
       xlink:href="#swatch11"
       id="linearGradient17"
       gradientUnits="userSpaceOnUse"
       x1="93.027222"
       y1="62.418964"
       x2="299.6933"
       y2="62.418964" /><linearGradient
       xlink:href="#swatch16"
       id="linearGradient3"
       gradientUnits="userSpaceOnUse"
       x1="93.027222"
       y1="62.418964"
       x2="299.6933"
       y2="62.418964" /><linearGradient
       xlink:href="#swatch16"
       id="linearGradient4"
       gradientUnits="userSpaceOnUse"
       x1="93.027222"
       y1="62.418964"
       x2="299.6933"
       y2="62.418964" /><linearGradient
       xlink:href="#swatch16"
       id="linearGradient6"
       gradientUnits="userSpaceOnUse"
       x1="93.027222"
       y1="62.418964"
       x2="299.6933"
       y2="62.418964" /></defs><rect
     style="fill:url(#swatch14);fill-opacity:1;stroke-width:0.20113"
     id="rect1"
     width="300"
     height="75"
     x="2.7105052e-23"
     y="-1.013223e-23" /><g
     id="layer1"
     transform="translate(-21.776689,-24.918964)"
     style="stroke:url(#linearGradient16)"><g
       id="g5"
       style="stroke:url(#linearGradient4)"><g
         id="use7"
         transform="translate(34.88057,-6.2986361)"
         style="stroke:url(#linearGradient3)"><g
           id="text22"
           style="font-size:55.1653px;white-space:pre;stroke:url(#linearGradient17)"
           transform="matrix(0.38368558,0,0,0.38368558,-56.933482,21.022718)"
           aria-label="BienAvecVue.com&#10;"><path
             style="font-weight:900;font-family:Montserrat;-inkscape-font-specification:'Montserrat Heavy';fill:url(#swatch13);stroke:none"
             d="M 299.93348,125.88762 V 87.271906 h 20.63183 q 7.99896,0 11.80537,2.868596 3.80641,2.81343 3.80641,7.226654 0,2.923764 -1.65496,5.240704 -1.5998,2.26178 -4.68905,3.58574 -3.08926,1.32397 -7.61281,1.32397 l 1.1033,-2.97893 q 4.52356,0 7.77831,1.26881 3.30992,1.2688 5.07521,3.69607 1.82045,2.37211 1.82045,5.73719 0,5.02004 -4.19256,7.83347 -4.1374,2.81344 -12.13637,2.81344 z m 12.79835,-9.10228 h 7.83348 q 2.15144,0 3.19958,-0.77231 1.10331,-0.77232 1.10331,-2.26178 0,-1.48946 -1.10331,-2.26178 -1.04814,-0.77231 -3.19958,-0.77231 h -8.71612 v -8.60579 h 6.95083 q 2.20661,0 3.19958,-0.71715 1.04814,-0.77231 1.04814,-2.151444 0,-1.434298 -1.04814,-2.151447 -0.99297,-0.717148 -3.19958,-0.717148 h -6.06819 z m 29.45831,9.10228 V 95.712197 h 12.46736 v 30.175423 z m 6.23368,-32.602696 q -3.42025,0 -5.46136,-1.820455 -2.04112,-1.820455 -2.04112,-4.523555 0,-2.703099 2.04112,-4.523554 2.04111,-1.820455 5.46136,-1.820455 3.42025,0 5.46137,1.710124 2.04111,1.710125 2.04111,4.413224 0,2.868596 -2.04111,4.744216 -2.04112,1.820455 -5.46137,1.820455 z m 28.41014,33.154346 q -5.51653,0 -9.65393,-2.04112 -4.08223,-2.04111 -6.34401,-5.57169 -2.26177,-3.58575 -2.26177,-8.05414 0,-4.57872 2.20661,-8.1093 2.26178,-3.530575 6.12335,-5.516525 3.91673,-1.985951 8.77128,-1.985951 4.46839,0 8.21963,1.765289 3.8064,1.76529 6.06818,5.240707 2.31694,3.47541 2.31694,8.60578 0,0.66199 -0.0552,1.48947 -0.0552,0.77231 -0.11033,1.43429 h -23.22459 v -6.01301 h 16.60475 l -4.68905,1.59979 q 0,-1.76529 -0.66198,-2.97893 -0.60682,-1.2688 -1.71013,-1.93078 -1.1033,-0.71715 -2.64793,-0.71715 -1.54463,0 -2.7031,0.71715 -1.10331,0.66198 -1.71012,1.93078 -0.60682,1.21364 -0.60682,2.97893 v 1.87562 q 0,1.93079 0.77231,3.30992 0.77232,1.37913 2.20661,2.09628 1.4343,0.66198 3.47542,0.66198 2.09628,0 3.42025,-0.55165 1.37913,-0.55165 2.86859,-1.65496 l 6.50951,6.56467 q -2.20662,2.37211 -5.46137,3.64091 -3.19959,1.21364 -7.72314,1.21364 z m 19.36301,-0.55165 V 95.712197 h 11.86054 v 8.826443 l -2.37211,-2.5376 q 1.76529,-3.420248 4.74422,-5.130372 3.03409,-1.710124 6.73016,-1.710124 3.47542,0 6.28885,1.434298 2.81343,1.379132 4.41322,4.358058 1.65496,2.97893 1.65496,7.72314 v 17.21158 h -12.46736 v -15.06013 q 0,-2.81343 -0.99297,-3.9719 -0.99298,-1.21364 -2.7031,-1.21364 -1.2688,0 -2.37211,0.60682 -1.04814,0.55165 -1.71012,1.87562 -0.60682,1.32397 -0.60682,3.58574 v 14.17749 z"
             id="path18" /><path
             style="font-weight:900;font-family:Montserrat;-inkscape-font-specification:'Montserrat Heavy';fill:url(#swatch12);stroke:none"
             d="m 431.11659,125.88762 16.88058,-38.615714 h 12.79835 l 16.88059,38.615714 h -13.46034 l -12.46736,-32.4372 h 5.07521 l -12.46736,32.4372 z m 10.04009,-6.73017 3.30992,-9.3781 h 17.76322 l 3.30992,9.3781 z m 45.12526,6.73017 -12.13637,-30.175423 h 12.79835 l 9.21261,24.493393 h -6.45434 l 9.81942,-24.493393 h 11.80537 l -12.13636,30.175423 z m 42.80826,0.55165 q -5.51653,0 -9.65393,-2.04112 -4.08223,-2.04111 -6.34401,-5.57169 -2.26178,-3.58575 -2.26178,-8.05414 0,-4.57872 2.20662,-8.1093 2.26177,-3.530575 6.12334,-5.516525 3.91674,-1.985951 8.77129,-1.985951 4.46839,0 8.21963,1.765289 3.8064,1.76529 6.06818,5.240707 2.31694,3.47541 2.31694,8.60578 0,0.66199 -0.0552,1.48947 -0.0552,0.77231 -0.11033,1.43429 h -23.2246 v -6.01301 h 16.60476 l -4.68905,1.59979 q 0,-1.76529 -0.66198,-2.97893 -0.60682,-1.2688 -1.71013,-1.93078 -1.1033,-0.71715 -2.64793,-0.71715 -1.54463,0 -2.7031,0.71715 -1.10331,0.66198 -1.71013,1.93078 -0.60682,1.21364 -0.60682,2.97893 v 1.87562 q 0,1.93079 0.77232,3.30992 0.77231,1.37913 2.20661,2.09628 1.4343,0.66198 3.47541,0.66198 2.09629,0 3.42025,-0.55165 1.37914,-0.55165 2.8686,-1.65496 l 6.5095,6.56467 q -2.20661,2.37211 -5.46136,3.64091 -3.19959,1.21364 -7.72314,1.21364 z m 35.58161,0 q -5.18554,0 -9.21261,-1.98595 -4.02706,-1.98595 -6.34401,-5.51653 -2.26177,-3.58575 -2.26177,-8.16447 0,-4.57872 2.26177,-8.1093 2.31695,-3.530575 6.34401,-5.516525 4.02707,-1.985951 9.21261,-1.985951 5.51653,0 9.43326,2.372108 3.91674,2.372108 5.4062,6.564668 l -9.65392,4.74422 q -0.93781,-2.09628 -2.31695,-3.03409 -1.32396,-0.93781 -2.92376,-0.93781 -1.37913,0 -2.59277,0.66198 -1.15847,0.66198 -1.87562,1.98595 -0.66198,1.2688 -0.66198,3.25475 0,1.98595 0.66198,3.30992 0.71715,1.32397 1.87562,1.98595 1.21364,0.66199 2.59277,0.66199 1.5998,0 2.92376,-0.93781 1.37914,-0.93781 2.31695,-3.0341 l 9.65392,4.74422 q -1.48946,4.19256 -5.4062,6.56467 -3.91673,2.37211 -9.43326,2.37211 z m 28.02389,-0.55165 -16.32892,-38.615714 h 14.01198 L 603.6736,119.8746 h -8.32996 l 13.68099,-32.602694 h 12.79835 l -16.32893,38.615714 z m 41.48428,0.55165 q -3.58575,0 -6.50951,-1.4343 -2.86859,-1.48946 -4.52355,-4.57872 -1.65496,-3.14442 -1.65496,-8.05413 V 95.712197 h 12.46736 v 14.508473 q 0,3.19959 1.04814,4.46839 1.04814,1.2688 2.86859,1.2688 1.10331,0 2.04112,-0.55165 0.99297,-0.60682 1.59979,-1.93079 0.60682,-1.37913 0.60682,-3.58574 V 95.712197 h 12.46736 V 125.88762 H 642.7306 v -8.71612 l 2.37211,2.37211 q -1.5998,3.53057 -4.57872,5.2407 -2.92376,1.65496 -6.34401,1.65496 z m 42.58763,0 q -5.51653,0 -9.65393,-2.04112 -4.08223,-2.04111 -6.34401,-5.57169 -2.26177,-3.58575 -2.26177,-8.05414 0,-4.57872 2.20661,-8.1093 2.26178,-3.530575 6.12335,-5.516525 3.91673,-1.985951 8.77128,-1.985951 4.46839,0 8.21963,1.765289 3.80641,1.76529 6.06818,5.240707 2.31694,3.47541 2.31694,8.60578 0,0.66199 -0.0552,1.48947 -0.0552,0.77231 -0.11033,1.43429 h -23.22459 v -6.01301 h 16.60475 l -4.68905,1.59979 q 0,-1.76529 -0.66198,-2.97893 -0.60682,-1.2688 -1.71013,-1.93078 -1.1033,-0.71715 -2.64793,-0.71715 -1.54463,0 -2.7031,0.71715 -1.1033,0.66198 -1.71012,1.93078 -0.60682,1.21364 -0.60682,2.97893 v 1.87562 q 0,1.93079 0.77231,3.30992 0.77232,1.37913 2.20661,2.09628 1.4343,0.66198 3.47542,0.66198 2.09628,0 3.42025,-0.55165 1.37913,-0.55165 2.86859,-1.65496 l 6.50951,6.56467 q -2.20661,2.37211 -5.46137,3.64091 -3.19958,1.21364 -7.72314,1.21364 z"
             id="path19" /><path
             style="font-weight:900;font-family:Montserrat;-inkscape-font-specification:'Montserrat Heavy';fill:url(#swatch13);stroke:none"
             d="m 701.75747,126.43927 q -3.08926,0 -5.18554,-1.98595 -2.09628,-2.04112 -2.09628,-5.18554 0,-3.19959 2.09628,-5.13037 2.09628,-1.93079 5.18554,-1.93079 3.08926,0 5.18554,1.93079 2.09628,1.93078 2.09628,5.13037 0,3.14442 -2.09628,5.18554 -2.09628,1.98595 -5.18554,1.98595 z m 27.36203,0 q -5.18554,0 -9.2126,-1.98595 -4.02707,-1.98595 -6.34401,-5.51653 -2.26178,-3.58575 -2.26178,-8.16447 0,-4.57872 2.26178,-8.1093 2.31694,-3.530575 6.34401,-5.516525 4.02706,-1.985951 9.2126,-1.985951 5.51653,0 9.43327,2.372108 3.91673,2.372108 5.4062,6.564668 l -9.65393,4.74422 q -0.93781,-2.09628 -2.31694,-3.03409 -1.32397,-0.93781 -2.92376,-0.93781 -1.37914,0 -2.59277,0.66198 -1.15847,0.66198 -1.87562,1.98595 -0.66199,1.2688 -0.66199,3.25475 0,1.98595 0.66199,3.30992 0.71715,1.32397 1.87562,1.98595 1.21363,0.66199 2.59277,0.66199 1.59979,0 2.92376,-0.93781 1.37913,-0.93781 2.31694,-3.0341 l 9.65393,4.74422 q -1.48947,4.19256 -5.4062,6.56467 -3.91674,2.37211 -9.43327,2.37211 z m 33.37493,0 q -5.13037,0 -9.10227,-1.98595 -3.91674,-2.04112 -6.17852,-5.5717 -2.26177,-3.53058 -2.26177,-8.1093 0,-4.57872 2.26177,-8.1093 2.26178,-3.530575 6.17852,-5.516525 3.9719,-1.985951 9.10227,-1.985951 5.13037,0 9.10228,1.985951 3.9719,1.98595 6.17851,5.516525 2.26178,3.53058 2.26178,8.1093 0,4.57872 -2.26178,8.1093 -2.20661,3.53058 -6.17851,5.5717 -3.97191,1.98595 -9.10228,1.98595 z m 0,-9.70909 q 1.37913,0 2.48244,-0.66199 1.10331,-0.66198 1.76529,-1.98595 0.66198,-1.37913 0.66198,-3.30992 0,-1.98595 -0.66198,-3.25475 -0.66198,-1.32397 -1.76529,-1.98595 -1.10331,-0.66198 -2.48244,-0.66198 -1.37913,0 -2.48244,0.66198 -1.1033,0.66198 -1.76529,1.98595 -0.66198,1.2688 -0.66198,3.25475 0,1.93079 0.66198,3.30992 0.66199,1.32397 1.76529,1.98595 1.10331,0.66199 2.48244,0.66199 z m 21.4593,9.15744 V 95.712197 h 11.86054 v 8.660953 l -2.42727,-2.42727 q 1.71012,-3.420253 4.57872,-5.075212 2.86859,-1.710124 6.39917,-1.710124 3.9719,0 7.00599,2.096281 3.08926,2.041116 4.1374,6.509505 l -3.8064,-0.60682 q 1.65495,-3.751238 4.79938,-5.847519 3.19958,-2.151447 7.39215,-2.151447 3.42024,0 6.12334,1.434298 2.75827,1.379132 4.3029,4.358058 1.59979,2.97893 1.59979,7.72314 v 17.21158 h -12.46736 v -15.06013 q 0,-2.81343 -0.93781,-3.9719 -0.93781,-1.21364 -2.42727,-1.21364 -1.10331,0 -1.98595,0.55165 -0.88265,0.55166 -1.4343,1.76529 -0.49649,1.15847 -0.49649,3.19959 v 14.72914 h -12.46735 v -15.06013 q 0,-2.81343 -0.88265,-3.9719 -0.88264,-1.21364 -2.48244,-1.21364 -1.1033,0 -1.98595,0.55165 -0.88264,0.55166 -1.43429,1.76529 -0.49649,1.15847 -0.49649,3.19959 v 14.72914 z"
             id="path20" /></g><path
           style="font-weight:500;font-size:8.81944px;font-family:Raleway;-inkscape-font-specification:'Raleway Medium';letter-spacing:1.71979px;fill:url(#swatch8);stroke:none"
           d="m 72.283275,78.336083 h 0.670278 l 2.557637,6.261802 h -0.846666 l -0.740833,-1.834443 h -2.628193 l -0.732013,1.834443 h -0.846667 z m 1.464027,3.809998 -1.128888,-2.892776 -1.164166,2.892776 z m 3.686534,-0.723194 q 0,-0.573264 0.194028,-1.120069 0.202847,-0.555625 0.582083,-1.005416 0.388055,-0.458611 0.94368,-0.723194 0.555625,-0.273403 1.26118,-0.273403 0.837847,0 1.437569,0.388055 0.599722,0.379236 0.890763,0.978958 l -0.62618,0.405694 q -0.185208,-0.396874 -0.47625,-0.62618 -0.282222,-0.238125 -0.617361,-0.335138 -0.326319,-0.09701 -0.643819,-0.09701 -0.520347,0 -0.926041,0.211666 -0.396875,0.211667 -0.670277,0.564444 -0.273403,0.352778 -0.414514,0.79375 -0.132292,0.432153 -0.132292,0.873125 0,0.485069 0.15875,0.93486 0.16757,0.449792 0.458611,0.79375 0.291042,0.343958 0.687916,0.546805 0.396875,0.202847 0.864305,0.202847 0.32632,0 0.670278,-0.114653 0.343958,-0.114652 0.643819,-0.352777 0.299861,-0.246944 0.47625,-0.635 l 0.661458,0.361597 q -0.194028,0.467431 -0.599722,0.79375 -0.405694,0.326319 -0.908402,0.493888 -0.493889,0.16757 -0.978958,0.16757 -0.643819,0 -1.181805,-0.273403 -0.537986,-0.282222 -0.934861,-0.740833 -0.388055,-0.46743 -0.608541,-1.040694 -0.211667,-0.582083 -0.211667,-1.172985 z m 13.176236,-3.086804 v 6.261802 h -0.79375 v -2.848679 h -3.448401 v 2.848679 h -0.793749 v -6.261802 h 0.793749 v 2.707568 h 3.448401 v -2.707568 z m 5.124087,0 h 0.670278 l 2.557637,6.261802 h -0.846666 l -0.740833,-1.834443 h -2.628193 l -0.732014,1.834443 h -0.846666 z m 1.464027,3.809998 -1.128888,-2.892776 -1.164166,2.892776 z m 8.246184,-3.104443 h -2.16077 v 5.556247 h -0.79375 v -5.556247 h -2.16076 v -0.705555 h 5.11528 z m 14.20811,5.556247 v -6.261802 h 0.79375 v 5.556247 h 3.4925 v 0.705555 z m 9.21632,0.0441 q -0.66146,0 -1.19944,-0.264583 -0.53799,-0.264583 -0.93486,-0.714374 -0.38806,-0.458611 -0.59972,-1.023056 -0.21167,-0.573263 -0.21167,-1.172985 0,-0.62618 0.22049,-1.190624 0.2293,-0.573264 0.62618,-1.014236 0.40569,-0.449791 0.94368,-0.705555 0.53798,-0.264583 1.17298,-0.264583 0.66146,0 1.19944,0.273402 0.53799,0.273403 0.92605,0.732014 0.38805,0.458611 0.59972,1.023055 0.21166,0.564444 0.21166,1.155346 0,0.626181 -0.22048,1.199444 -0.22049,0.564444 -0.62618,1.014236 -0.39688,0.440972 -0.93486,0.696736 -0.53799,0.255763 -1.17299,0.255763 z m -2.14312,-3.174998 q 0,0.47625 0.14993,0.926041 0.15875,0.440972 0.44097,0.78493 0.28222,0.343958 0.6791,0.546806 0.39687,0.202847 0.88194,0.202847 0.50271,0 0.89958,-0.211667 0.39688,-0.211666 0.67028,-0.564444 0.28222,-0.352778 0.42334,-0.79375 0.14993,-0.440972 0.14993,-0.890763 0,-0.47625 -0.15875,-0.917222 -0.14993,-0.440972 -0.44098,-0.78493 -0.28222,-0.352778 -0.67909,-0.546805 -0.38806,-0.202847 -0.86431,-0.202847 -0.50271,0 -0.89958,0.211666 -0.39688,0.202847 -0.6791,0.555625 -0.2734,0.352778 -0.42333,0.79375 -0.14993,0.432152 -0.14993,0.890763 z m 7.51415,-0.0441 q 0,-0.573264 0.19403,-1.120069 0.20285,-0.555625 0.58208,-1.005416 0.38806,-0.458611 0.94368,-0.723194 0.55563,-0.273403 1.26118,-0.273403 0.83785,0 1.43757,0.388055 0.59972,0.379236 0.89076,0.978958 l -0.62618,0.405694 q -0.1852,-0.396874 -0.47624,-0.62618 -0.28223,-0.238125 -0.61737,-0.335138 -0.32632,-0.09701 -0.64381,-0.09701 -0.52035,0 -0.92605,0.211666 -0.39687,0.211667 -0.67027,0.564444 -0.27341,0.352778 -0.41452,0.79375 -0.13229,0.432153 -0.13229,0.873125 0,0.485069 0.15875,0.93486 0.16757,0.449792 0.45861,0.79375 0.29104,0.343958 0.68792,0.546805 0.39687,0.202847 0.8643,0.202847 0.32632,0 0.67028,-0.114653 0.34396,-0.114652 0.64382,-0.352777 0.29986,-0.246944 0.47625,-0.635 l 0.66146,0.361597 q -0.19403,0.467431 -0.59972,0.79375 -0.4057,0.326319 -0.90841,0.493888 -0.49389,0.16757 -0.97895,0.16757 -0.64382,0 -1.18181,-0.273403 -0.53799,-0.282222 -0.93486,-0.740833 -0.38806,-0.46743 -0.60854,-1.040694 -0.21167,-0.582083 -0.21167,-1.172985 z m 9.95714,-3.086804 h 0.67028 l 2.55764,6.261802 h -0.84667 l -0.74083,-1.834443 h -2.6282 l -0.73201,1.834443 h -0.84667 z m 1.46403,3.809998 -1.12889,-2.892776 -1.16417,2.892776 z m 8.24618,-3.104443 h -2.16076 v 5.556247 h -0.79375 v -5.556247 h -2.16076 v -0.705555 h 5.11527 z m 2.61937,5.556247 v -6.261802 h 0.79375 v 6.261802 z m 6.55285,0.0441 q -0.66146,0 -1.19944,-0.264583 -0.53799,-0.264583 -0.93486,-0.714374 -0.38806,-0.458611 -0.59973,-1.023056 -0.21166,-0.573263 -0.21166,-1.172985 0,-0.62618 0.22048,-1.190624 0.22931,-0.573264 0.62618,-1.014236 0.4057,-0.449791 0.94368,-0.705555 0.53799,-0.264583 1.17299,-0.264583 0.66146,0 1.19944,0.273402 0.53799,0.273403 0.92604,0.732014 0.38806,0.458611 0.59973,1.023055 0.21166,0.564444 0.21166,1.155346 0,0.626181 -0.22048,1.199444 -0.22049,0.564444 -0.62618,1.014236 -0.39688,0.440972 -0.93486,0.696736 -0.53799,0.255763 -1.17299,0.255763 z m -2.14312,-3.174998 q 0,0.47625 0.14993,0.926041 0.15875,0.440972 0.44097,0.78493 0.28222,0.343958 0.6791,0.546806 0.39687,0.202847 0.88194,0.202847 0.50271,0 0.89958,-0.211667 0.39688,-0.211666 0.67028,-0.564444 0.28222,-0.352778 0.42333,-0.79375 0.14993,-0.440972 0.14993,-0.890763 0,-0.47625 -0.15875,-0.917222 -0.14993,-0.440972 -0.44097,-0.78493 -0.28222,-0.352778 -0.6791,-0.546805 -0.38805,-0.202847 -0.8643,-0.202847 -0.50271,0 -0.89958,0.211666 -0.39688,0.202847 -0.6791,0.555625 -0.2734,0.352778 -0.42333,0.79375 -0.14993,0.432152 -0.14993,0.890763 z m 8.71359,-1.666874 v 4.797775 h -0.79375 v -6.261802 h 0.67028 l 3.82763,4.894789 v -4.88597 h 0.79375 v 6.252983 h -0.72319 z m 19.44687,-1.464027 2.07257,5.265205 2.06375,-5.265205 h 0.83785 l -2.54,6.261802 h -0.7232 l -2.54882,-6.261802 z m 8.93409,0 h 0.67028 l 2.55764,6.261802 h -0.84667 l -0.74083,-1.834443 h -2.62819 l -0.73202,1.834443 h -0.84666 z m 1.46403,3.809998 -1.12889,-2.892776 -1.16416,2.892776 z m 3.68654,-0.723194 q 0,-0.573264 0.19403,-1.120069 0.20284,-0.555625 0.58208,-1.005416 0.38805,-0.458611 0.94368,-0.723194 0.55562,-0.273403 1.26118,-0.273403 0.83785,0 1.43757,0.388055 0.59972,0.379236 0.89076,0.978958 l -0.62618,0.405694 q -0.18521,-0.396874 -0.47625,-0.62618 -0.28222,-0.238125 -0.61736,-0.335138 -0.32632,-0.09701 -0.64382,-0.09701 -0.52035,0 -0.92604,0.211666 -0.39687,0.211667 -0.67028,0.564444 -0.2734,0.352778 -0.41451,0.79375 -0.13229,0.432153 -0.13229,0.873125 0,0.485069 0.15875,0.93486 0.16757,0.449792 0.45861,0.79375 0.29104,0.343958 0.68791,0.546805 0.39688,0.202847 0.86431,0.202847 0.32632,0 0.67028,-0.114653 0.34396,-0.114652 0.64382,-0.352777 0.29986,-0.246944 0.47625,-0.635 l 0.66145,0.361597 q -0.19402,0.467431 -0.59972,0.79375 -0.40569,0.326319 -0.9084,0.493888 -0.49389,0.16757 -0.97896,0.16757 -0.64382,0 -1.1818,-0.273403 -0.53799,-0.282222 -0.93486,-0.740833 -0.38806,-0.46743 -0.60854,-1.040694 -0.21167,-0.582083 -0.21167,-1.172985 z m 9.95713,-3.086804 h 0.67028 l 2.55764,6.261802 h -0.84667 l -0.74083,-1.834443 h -2.6282 l -0.73201,1.834443 h -0.84667 z m 1.46403,3.809998 -1.12889,-2.892776 -1.16417,2.892776 z m 5.11527,-2.345971 v 4.797775 h -0.79375 v -6.261802 h 0.67028 l 3.82764,4.894789 v -4.88597 h 0.79375 v 6.252983 h -0.7232 z m 7.31132,1.622777 q 0,-0.573264 0.19402,-1.120069 0.20285,-0.555625 0.58209,-1.005416 0.38805,-0.458611 0.94368,-0.723194 0.55562,-0.273403 1.26118,-0.273403 0.83784,0 1.43757,0.388055 0.59972,0.379236 0.89076,0.978958 l -0.62618,0.405694 q -0.18521,-0.396874 -0.47625,-0.62618 -0.28222,-0.238125 -0.61736,-0.335138 -0.32632,-0.09701 -0.64382,-0.09701 -0.52035,0 -0.92604,0.211666 -0.39688,0.211667 -0.67028,0.564444 -0.2734,0.352778 -0.41451,0.79375 -0.13229,0.432153 -0.13229,0.873125 0,0.485069 0.15875,0.93486 0.16756,0.449792 0.45861,0.79375 0.29104,0.343958 0.68791,0.546805 0.39688,0.202847 0.86431,0.202847 0.32632,0 0.67028,-0.114653 0.34395,-0.114652 0.64381,-0.352777 0.29987,-0.246944 0.47625,-0.635 l 0.66146,0.361597 q -0.19403,0.467431 -0.59972,0.79375 -0.40569,0.326319 -0.9084,0.493888 -0.49389,0.16757 -0.97896,0.16757 -0.64382,0 -1.18181,-0.273403 -0.53798,-0.282222 -0.93486,-0.740833 -0.38805,-0.46743 -0.60854,-1.040694 -0.21166,-0.582083 -0.21166,-1.172985 z m 12.39131,2.469443 v 0.705555 h -4.25097 v -6.261802 h 4.1716 v 0.705555 h -3.37785 v 2.028471 h 2.93687 v 0.661458 h -2.93687 v 2.160763 z m 6.48228,-4.242151 q -0.10583,-0.123472 -0.28222,-0.238125 -0.17639,-0.114652 -0.39688,-0.202847 -0.22048,-0.09701 -0.48507,-0.14993 -0.25576,-0.06174 -0.53798,-0.06174 -0.7232,0 -1.06716,0.273402 -0.34395,0.273403 -0.34395,0.749653 0,0.335139 0.17639,0.529166 0.17638,0.194028 0.53798,0.3175 0.37042,0.123472 0.93486,0.255764 0.65264,0.141111 1.12889,0.343958 0.47625,0.202847 0.73201,0.546805 0.25577,0.335139 0.25577,0.899583 0,0.449792 -0.17639,0.78493 -0.16757,0.32632 -0.47625,0.546806 -0.30868,0.211666 -0.7232,0.317499 -0.41451,0.09701 -0.89958,0.09701 -0.47625,0 -0.93486,-0.09701 -0.44979,-0.105833 -0.85548,-0.299861 -0.4057,-0.194027 -0.75848,-0.485069 l 0.37924,-0.670277 q 0.14111,0.14993 0.3616,0.299861 0.2293,0.141111 0.51152,0.264583 0.29105,0.123472 0.62618,0.202847 0.33514,0.07056 0.68792,0.07056 0.67028,0 1.04069,-0.238125 0.37042,-0.246945 0.37042,-0.714375 0,-0.352778 -0.21167,-0.564444 -0.20284,-0.211667 -0.60854,-0.352778 -0.40569,-0.141111 -0.98777,-0.282222 -0.635,-0.15875 -1.06716,-0.343958 -0.43215,-0.194028 -0.65263,-0.502708 -0.21167,-0.30868 -0.21167,-0.802569 0,-0.599722 0.29104,-1.014236 0.29104,-0.414513 0.80257,-0.62618 0.51153,-0.211666 1.15535,-0.211666 0.42333,0 0.78493,0.08819 0.37041,0.08819 0.68791,0.246944 0.3175,0.15875 0.58209,0.379236 z"
           id="text23"
           aria-label="ACHAT   LOCATION   VACANCES" /><rect
           id="rect23"
           width="1.5"
           height="7.5"
           x="111.31872"
           y="77.988594"
           style="fill:url(#swatch12);stroke:none" /><rect
           id="rect24"
           width="1.5"
           height="7.687499"
           x="180.61255"
           y="77.632065"
           style="fill:url(#swatch12);stroke:none" /><text
           xml:space="preserve"
           style="font-style:normal;font-variant:normal;font-weight:normal;font-stretch:normal;font-size:10.5833px;line-height:0;font-family:Raleway;-inkscape-font-specification:Raleway;text-align:start;letter-spacing:0.264583px;word-spacing:0px;writing-mode:lr-tb;direction:ltr;text-anchor:start;stroke:url(#linearGradient6)"
           x="113.76608"
           y="84.892693"
           id="text24"><tspan
             id="tspan24"
             x="113.76608"
             y="84.892693"
             style="stroke:url(#linearGradient6)"> </tspan></text></g></g></g><g
     id="layer1-8"
     transform="matrix(0.29492019,0,0,0.29492019,12.08944,-4.4518971)">
      <g
   id="layer-pin-vecto"
   transform="matrix(0.10400388,0,0,0.10400386,23.261515,42.180805)"><path
     style="fill:#d7af3b;fill-rule:evenodd;stroke:none"
     d="M 119.324,1212.262 C 73.684,1138.789 38.157,1045.986 18.084,947.806 0.29,860.772 -3.986,786.995 4.099,706.5 25.421,494.207 132.02,301.707 301,170.344 391.981,99.616 498.198,49.57 610.42,24.554 725.374,-1.071 843.649,-1.114 958.238,24.43 c 172.992,38.562 327.73,134.769 439.199,273.07 56.418,69.998 101.072,151.016 129.574,235.098 22.073,65.112 34.464,126.341 40.153,198.402 1.639,20.756 1.66,84.44 0.034,103.5 -10.935,128.221 -47.147,252.897 -102.238,352 -7.733,13.911 -24.275,40.587 -24.961,40.253 -0.286,-0.139 -73.28,-24.545 -162.21,-54.236 l -161.69,-53.983 1.98,-3.017 c 44.776,-68.213 74.17,-133.208 90.91,-201.017 10.724,-43.439 14.557,-78.461 13.737,-125.5 -0.671,-38.451 -3.564,-61.291 -12.224,-96.5 C 1184.336,586.114 1119.257,493.569 1027.489,432.248 938.96,373.092 831.465,348.543 724.599,363.077 580.271,382.706 454.504,473.588 390.504,604.5 c -21.819,44.631 -34.672,87.464 -41.56,138.5 -2.642,19.578 -3.751,67.355 -2.07,89.179 7.359,95.537 41.062,187.321 104.034,283.321 l 1.968,3 -161.188,53.922 c -88.653,29.657 -161.639,54.075 -162.191,54.262 -0.551,0.187 -5.129,-6.303 -10.173,-14.422 z"
     id="path-jaune" /><path
     style="fill:url(#swatch8);fill-rule:evenodd;stroke:none"
     d="m 746.146,1877.375 c -38.211,-40.864 -38.914,-41.692 -38.497,-45.25 0.733,-6.247 42.351,-537.339 42.351,-540.442 v -2.183 h 36 36 v 2.502 c 0,2.823 17.662,228.296 21.502,274.498 2.226,26.773 19.962,254.616 20.65,265.273 l 0.276,4.272 -38.763,41.478 c -21.319,22.812 -39.175,41.477 -39.68,41.477 -0.505,0 -18.432,-18.731 -39.839,-41.625 z m 293.94,-207.11 c -3.567,-7.306 -18.752,-40.69 -68.578,-150.765 -55.488,-122.583 -81.24,-179.324 -95.696,-210.854 -6.015,-13.12 -10.796,-23.986 -10.624,-24.147 0.171,-0.161 5.262,-1.273 11.312,-2.472 15.081,-2.987 37.446,-8.37 50.154,-12.072 5.817,-1.694 11.136,-2.866 11.82,-2.603 1.351,0.518 1.119,0.195 78.998,110.148 105.202,148.53 132.528,187.35 132.528,188.276 0,0.902 -105.48,108.443 -106.899,108.989 -0.378,0.145 -1.735,-1.88 -3.015,-4.5 z m -557.731,-51.252 c -29.07,-28.637 -53.002,-52.497 -53.182,-53.021 -0.364,-1.062 3.596,-6.788 52.214,-75.492 93.226,-131.743 160.839,-225.627 162.134,-225.13 7.565,2.903 49.188,13.067 64.274,15.695 4.012,0.699 7.474,1.561 7.693,1.916 0.467,0.755 -8.413,19.971 -67.703,146.519 -69.271,147.85 -93.364,199.45 -103.323,221.291 l -9.253,20.29 z M 249.04,1389.54 c -34.899,-34.903 -63.248,-63.631 -62.997,-63.84 0.251,-0.21 14.857,-5.908 32.457,-12.663 107.522,-41.269 218.702,-85.682 273.631,-109.307 l 19.631,-8.444 8.869,6.995 c 17.483,13.79 40.512,28.257 62.656,39.363 6.033,3.025 10.573,5.873 10.091,6.327 -0.483,0.455 -52.403,38.523 -115.378,84.596 C 326.421,1443.464 313.347,1453 312.886,1453 c -0.215,0 -28.946,-28.557 -63.846,-63.46 z m 952.404,19.206 c -98.433,-70.491 -220.219,-158.372 -222.823,-160.788 -0.483,-0.448 1.475,-2.085 4.352,-3.637 26.586,-14.342 53.664,-31.251 71.44,-44.611 l 5.913,-4.443 13.087,5.758 c 7.198,3.168 34.687,15.31 61.087,26.984 26.4,11.673 92.1,40.556 146,64.184 53.9,23.628 98.327,43.275 98.727,43.66 0.399,0.385 -25.501,26.925 -57.557,58.977 l -58.283,58.277 z M 504.651,988.75 c -0.364,-59.538 -0.71,-147.791 -0.77,-196.119 l -0.109,-87.868 75.864,-60.526 c 79.709,-63.592 203.123,-161.97 204.916,-163.346 0.607,-0.466 3.394,0.761 6.593,2.901 3.048,2.039 66.579,52.533 141.182,112.208 l 135.64,108.5 0.016,193.25 L 1068,1091 h -34.835 c -19.159,0 -74.059,0.299 -122,0.665 L 824,1092.33 V 986.165 880 h -37.989 -37.989 l 0.485,39.75 c 0.267,21.862 0.707,57.862 0.978,80 l 0.493,40.25 h -22.873 -22.873 l -0.592,-33.25 c -0.325,-18.288 -0.835,-64.638 -1.133,-103 L 701.966,834 H 785.983 870 v 106.124 106.124 l 75.75,-0.735 c 41.663,-0.405 76.087,-0.938 76.5,-1.184 0.413,-0.246 0.75,-71.881 0.75,-159.19 V 726.397 L 905.035,632.46 c -64.881,-51.665 -118.318,-94.047 -118.75,-94.181 -0.432,-0.135 -53.824,42.01 -118.649,93.656 l -117.864,93.9 0.11,87.833 c 0.06,48.307 0.407,131.819 0.77,185.582 l 0.661,97.75 h -23.001 -23 z"
     id="path-bleu" /></g></g></svg>
